<svg width="64" height="64" viewBox="0 0 64 64" fill="none" xmlns="http://www.w3.org/2000/svg">
<path d="M0 0V64H64V0H0ZM61.0134 2.98657V61.0134H2.98657V2.98657H61.0134Z" fill="white"/>
<path d="M22.7033 56.7444V43.0333C22.7033 41.5551 21.8284 40.8311 20.7876 40.8311C19.7469 40.8311 18.9022 41.5551 18.9022 43.0333V56.7444H15.0709V43.0333C15.0709 41.5551 14.2413 40.8311 13.1855 40.8311C12.1296 40.8311 11.3 41.5551 11.3 43.0333V56.7444H7.46875V37.6786H11.1642V39.0814C11.4961 38.644 11.9637 38.1462 12.4313 37.8898C12.9743 37.558 13.6681 37.377 14.3469 37.377C15.8704 37.377 17.243 38.1311 18.0726 39.3378C18.5402 38.7948 19.1586 38.2518 19.777 37.8898C20.3502 37.558 21.2251 37.377 21.7982 37.377C23.5781 37.377 24.5435 37.8445 25.4183 38.8552C26.1725 39.73 26.5345 40.7708 26.5345 42.973V56.7142H22.7033V56.7444Z" fill="white"/>
<path d="M39.9864 54.9947C38.8702 56.5483 37.3166 57.0159 35.4613 57.0159C33.606 57.0159 32.0524 56.5483 30.9362 54.9947C29.7446 53.3355 29.5938 50.3942 29.5938 47.1813C29.5938 43.9685 29.7446 41.0272 30.9362 39.368C32.0524 37.8144 33.606 37.377 35.4613 37.377C37.3166 37.377 38.8551 37.8144 39.9864 39.368C41.178 41.0272 41.3288 43.9534 41.3288 47.1813C41.3288 50.4092 41.178 53.3355 39.9864 54.9947ZM36.9546 41.5853C36.6227 41.0725 36.0496 40.7859 35.4764 40.7859C34.9032 40.7859 34.3149 41.0725 33.9982 41.5853C33.4853 42.4451 33.4552 44.3758 33.4552 47.1964C33.4552 50.0171 33.4853 51.9779 33.9982 52.8377C34.33 53.3506 34.9032 53.5919 35.4764 53.5919C36.0496 53.5919 36.6378 53.3355 36.9546 52.8377C37.4674 51.9629 37.4976 50.0171 37.4976 47.1964C37.4976 44.3758 37.4674 42.4602 36.9546 41.5853Z" fill="white"/>
<path d="M44.4062 56.7444V30.9814H48.2375V56.7444H44.4062Z" fill="white"/>
<path d="M52.7188 56.7444V30.9814H56.55V56.7444H52.7188Z" fill="white"/>
</svg>
