<svg width="64" height="64" viewBox="0 0 64 64" fill="none" xmlns="http://www.w3.org/2000/svg">
<path d="M0 0V64H64V0H0ZM61.0134 2.98657V61.0134H2.98657V2.98657H61.0134Z" fill="black"/>
<path d="M22.7033 56.7449V43.0338C22.7033 41.5556 21.8284 40.8316 20.7876 40.8316C19.7469 40.8316 18.9022 41.5556 18.9022 43.0338V56.7449H15.0709V43.0338C15.0709 41.5556 14.2413 40.8316 13.1855 40.8316C12.1296 40.8316 11.3 41.5556 11.3 43.0338V56.7449H7.46875V37.6791H11.1642V39.0819C11.4961 38.6445 11.9637 38.1467 12.4313 37.8903C12.9743 37.5584 13.6681 37.3774 14.3469 37.3774C15.8704 37.3774 17.243 38.1316 18.0726 39.3383C18.5402 38.7953 19.1586 38.2523 19.777 37.8903C20.3502 37.5584 21.2251 37.3774 21.7982 37.3774C23.5781 37.3774 24.5435 37.845 25.4183 38.8556C26.1725 39.7305 26.5345 40.7713 26.5345 42.9735V56.7147H22.7033V56.7449Z" fill="black"/>
<path d="M39.9864 54.9952C38.8702 56.5488 37.3166 57.0164 35.4613 57.0164C33.606 57.0164 32.0524 56.5488 30.9362 54.9952C29.7446 53.336 29.5938 50.3946 29.5938 47.1818C29.5938 43.969 29.7446 41.0277 30.9362 39.3685C32.0524 37.8149 33.606 37.3774 35.4613 37.3774C37.3166 37.3774 38.8551 37.8149 39.9864 39.3685C41.178 41.0277 41.3288 43.9539 41.3288 47.1818C41.3288 50.4097 41.178 53.336 39.9864 54.9952ZM36.9546 41.5858C36.6227 41.0729 36.0496 40.7863 35.4764 40.7863C34.9032 40.7863 34.3149 41.0729 33.9982 41.5858C33.4853 42.4456 33.4552 44.3763 33.4552 47.1969C33.4552 50.0176 33.4853 51.9784 33.9982 52.8382C34.33 53.351 34.9032 53.5924 35.4764 53.5924C36.0496 53.5924 36.6378 53.336 36.9546 52.8382C37.4674 51.9633 37.4976 50.0176 37.4976 47.1969C37.4976 44.3763 37.4674 42.4606 36.9546 41.5858Z" fill="black"/>
<path d="M44.4062 56.7448V30.9819H48.2375V56.7448H44.4062Z" fill="black"/>
<path d="M52.7188 56.7448V30.9819H56.55V56.7448H52.7188Z" fill="black"/>
</svg>
